<svg xmlns="http://www.w3.org/2000/svg" width="200" height="200" fill="none"><g clip-path="url(#a)"><path fill="#000" d="M168.837 53.739a83.4 83.4 0 0 0-15.179-16.917L190.479 0H83.205L41.802 41.407h.006l-.089.086a82.842 82.842 0 0 0-17.731 26.3c-4.316 10.201-6.503 21.037-6.503 32.208s2.187 22.005 6.503 32.206a83 83 0 0 0 7.628 14.054A83.2 83.2 0 0 0 46.81 163.19L10 200h107.243l41.572-41.574h-.004a83 83 0 0 0 10.026-12.165 82.7 82.7 0 0 0 7.628-14.054c4.315-10.201 6.5-21.036 6.5-32.206s-2.185-22.007-6.5-32.208a82.8 82.8 0 0 0-7.628-14.054"/><path fill="#fff" d="M153.884 46.25a77 77 0 0 0-5.025-4.6l-45.023 45.022a13.9 13.9 0 0 1 6.055 3.547l.012.013c5.437 5.437 5.437 14.252 0 19.69l-83.395 83.394h9.77l78.511-78.51c8.112-8.11 8.135-21.245.073-29.387l4.885-4.885c10.759 10.838 10.736 28.349-.073 39.156l-73.628 73.626h9.772l68.742-68.741c13.507-13.505 13.53-35.39.073-48.925l4.886-4.887c16.157 16.236 16.13 42.494-.075 58.698l-63.855 63.855h9.773l58.967-58.968c18.904-18.903 18.929-49.538.075-68.471l4.886-4.885c21.554 21.631 21.529 56.64-.075 78.242l-54.082 54.082h9.77l49.199-49.197c24.301-24.298 24.324-63.683.073-88.013l4.917-4.919c26.968 27.047 26.943 70.832-.071 97.851l-44.283 44.278h9.773l39.396-39.392-.023-.023c29.727-29.727 29.727-77.925 0-107.65"/><path fill="#E03A3E" d="M46.61 153.818a77 77 0 0 0 5.026 4.6l45.023-45.024a13.9 13.9 0 0 1-6.053-3.544l-.014-.014c-5.437-5.437-5.437-14.254 0-19.69l83.51-83.51h-9.771L85.706 85.262c-8.11 8.111-8.135 21.246-.071 29.389l-4.885 4.884c-10.76-10.84-10.738-28.35.071-39.156l73.741-73.741h-9.772L75.935 75.492c-13.505 13.505-13.528 35.391-.071 48.925l-4.885 4.886c-16.158-16.235-16.133-42.493.071-58.698L135.02 6.637h-9.771L66.166 65.719c-18.904 18.904-18.93 49.538-.073 68.471l-4.886 4.886c-21.554-21.631-21.531-56.642.073-78.244l54.195-54.195h-9.771l-49.31 49.31c-24.302 24.302-24.325 63.683-.074 88.015l-4.917 4.917c-26.968-27.045-26.943-70.832.073-97.848L95.87 6.637h-9.773L46.59 46.144l.02.022c-29.726 29.727-29.726 77.924 0 107.652"/></g><defs><clipPath id="a"><path fill="#fff" d="M0 0h200v200H0z"/></clipPath></defs></svg>