<svg xmlns="http://www.w3.org/2000/svg" width="200" height="200" fill="none"><g clip-path="url(#a)"><path fill="#142530" d="M63.366 141.566a145 145 0 0 0-24.123-18.663s2.257-5.591 3.014-8.394c6.062-22.565.68-40.665-9.266-61.319 0 0 15.818 1.76 26.044.766 14.66-1.432 27.749-5.49 40.997-12.106 23.035 11.5 41.92 14.132 67.034 11.338-11.77 24.435-16.369 44.662-6.252 69.714 0 0-5.93 3.659-9.577 6.367-26.274 19.516-39.439 40.057-51.205 70.732-9.028-23.533-18.145-40.782-36.666-58.435"/><path fill="#fff" d="M66.277 138.489c-6.627-6.316-13.959-12.504-21.78-17.305a52 52 0 0 0 1.836-5.571c5.21-19.41 2.528-39.208-6.219-57.368 6.43.584 12.902.558 19.327-.078a115.6 115.6 0 0 0 40.591-11.581c17.343 8.66 40.365 13.88 59.912 11.659-8.751 18.16-11.434 37.959-6.22 57.368a51 51 0 0 0 1.84 5.571s-3.003 1.838-6.833 4.685c-21.565 16.014-38.957 36.944-48.697 62.338-7.544-19.647-18.713-35.365-33.757-49.718"/><path fill="#005595" d="M67.432 137.267c11.318 10.791 24.533 26.467 32.6 46.303 9.476-23.314 27.601-44.135 47.693-59.054a114 114 0 0 1 5.76-4.032 71 71 0 0 1-3.745-18.054 83.15 83.15 0 0 1 7.404-42.21c-18.889 1.292-40.325-3.449-57.11-11.751-16.791 8.3-38.225 13.043-57.108 11.751 7.981 17.31 9.972 37.438 5.036 55.828a56 56 0 0 1-1.381 4.436 144 144 0 0 1 20.85 16.783"/><path fill="#142530" d="M54.78 75.584c-5.273-28.85-4.625-57.949-4.625-57.949L100.033 0l49.87 17.636s.653 29.098-4.624 57.947c-6.094 33.381-17.25 63.799-45.246 85.398-28.004-21.597-39.147-52.014-45.253-85.397"/><path fill="#fff" d="M60.24 74.644a294 294 0 0 1-4.593-52.878l44.385-15.702 44.375 15.702a294 294 0 0 1-4.591 52.878c-5.154 28.195-15.715 60.622-39.784 79.187-24.074-18.565-34.63-50.992-39.792-79.187"/><path fill="#5D9741" d="M63.107 74.12c5.029 27.527 15.474 58.852 36.925 76.019 32.212-25.781 41.753-87.01 41.505-126.299L100.032 9.168 58.518 23.84a288.6 288.6 0 0 0 4.59 50.28"/><path fill="#fff" d="m89.666 73.686-3.172-23c-2.882-.801-8.251-2.643-8.251-6.4-2.736-1.349-5.67-3.398-5.67-6.323 0-3.367 3.74-5.551 7-6.896 2.092-2.454 6.2-4.132 10.853-5.063a6.32 6.32 0 0 1 1.913-3.467 13.5 13.5 0 0 1 4-2.39l.427-.588.754-9.959c.457-2.808 3.37-2.493 4.247-1.49.397.41.647.943.709 1.512l.811 9.929.448.608c4.835 1.92 5.773 4.34 6.012 5.812 4.56.594 8.645 2.629 10.733 5.098 3.268 1.345 7.004 3.529 7.004 6.896 0 2.925-2.934 4.956-5.67 6.298 0 3.913-5.304 5.706-8.307 6.48l-3.147 22.945H89.666m-4.256 63.7c2.46-16.464 4.2-23.408 5.108-40.292h19.017c1.005 17.42 2.801 23.828 5.512 40.412l-15.015 15.285z"/><path fill="#142530" d="m91.858 73.687-3.456-24.734c-4.355-1.027-8.019-2.733-8.019-4.666.008-.45.165-.885.446-1.236-3.555-1.38-5.69-3.158-5.69-5.087 0-1.941 2.168-3.723 5.773-5.118 1.614-2.324 6.102-4.203 11.93-5.074-1.09-1.696.931-3.636.931-3.636a10.7 10.7 0 0 1 3.9-2.167l1.195-1.654.75-10.473c.401-1.472.826 0 .826 0l.748 10.473.918 1.26c3.367.992 4.707 2.651 4.707 2.651l-.692-.05c-3.089.376-3.928 2.026-3.806 3.13 8.145.364 14.785 2.6 16.831 5.538 3.604 1.395 5.769 3.178 5.769 5.117 0 1.93-2.128 3.708-5.683 5.089.274.354.428.787.439 1.235 0 1.933-3.186 3.643-8.096 4.697l-3.378 24.703h-1.751l1.868-23.22c.041-.276.085-1.035-.901-.862-.729.122-2.503.396-2.503.396a.9.9 0 0 0-.663.316.92.92 0 0 0-.212.704s.021 12.15.012 22.663h-8.027v-22.54a.96.96 0 0 0-.48-1.016.95.95 0 0 0-.379-.115l-2.425-.391c-1.25-.242-1.01.797-1.01.797l1.901 23.266h-1.773m-4.637 64.884c1.281-7.058 4.762-22.984 5.61-41.46h14.382c.846 18.477 4.31 34.336 5.602 41.407l-3.378 4.231c-1.571-7.769-2.482-12.393-3.904-20.081-.223-1.225-.542-1.932-1.071-1.863-.427.061-.635.63-.679 2.01l-1.695 26.099-2.062 3.103-2.072-3.103-1.693-26.099c-.047-1.38-.252-1.949-.677-2.01-.527-.069-.848.638-1.073 1.863a1097 1097 0 0 1-3.866 19.978z"/><path fill="#fff" d="M107.77 33.309a18.4 18.4 0 0 0-5.288-.592l.599-.337c1.977-1.098 5.068-1.395 7.44-.793 2.121.55 7.542 3.553 6.214 7.115a18.5 18.5 0 0 0-2.225-2.085.94.94 0 0 0-.53 1.186c1.503 1.446 2.328 3.331 1.686 5.052-2.003-2.804-6.448-5.224-9.855-6.313l-.302-.096c1.844-1.412 4.347-1.178 6.439-.092a1 1 0 0 0 .53-1.121 18.5 18.5 0 0 0-4.708-1.924"/><path fill="#142530" d="M32 74.285c22.304-9.553 43.734-14.428 68.031-14.428 24.287 0 45.722 4.875 68.029 14.428v42.967c-23.137-9.908-42.77-15.113-68.029-15.113-25.252 0-44.894 5.203-68.031 15.113z"/><path fill="#fff" d="M36.32 77.07v34.502a163.6 163.6 0 0 1 64.143-13.1c22.041 0 43.857 4.456 64.145 13.1V77.07a163.7 163.7 0 0 0-64.145-13.097c-22.04 0-43.855 4.454-64.144 13.097"/><path fill="#142530" d="M65.826 77.83c0 1.299.605 1.498 2.108 1.2l1.998-.386c2.195-.428 2.687-.784 2.687-2.407 0-1.748-.594-1.803-3.162-1.296-1.77.353-1.97.374-1.97-.147 0-.322.255-.51.626-.588l1.832-.355c.756-.153.798.025.798.464l1.654-.324v-.186c0-1.06-.177-1.748-2.085-1.376l-2.304.451c-2.083.404-2.173 1.264-2.173 2.349 0 1.479.285 1.753 2.767 1.263 2.13-.408 2.324-.418 2.324.107 0 .462-.363.575-.713.642l-2.019.397c-.477.092-.707.092-.717-.544l-1.65.32zm11.704-.591 5.984-.745v-1.44l-4.333.54v-.97l3.445-.426.575-1.303-4.02.49v-.969l4.243-.51v-1.403l-5.894.725zm14.324-5.98 1.07 2.174-2.11.154zm-3.985 4.896 1.836-.136.488-1.091 3.349-.235.513 1.03 1.837-.139-2.965-5.79-2.147.146zm11.15-5.002 2.319.046v4.513l1.649.03v-4.514l2.323.042v-1.497l-6.291-.107zm9.516.244 2.323.164v4.51l1.644.114v-4.511l2.322.16v-1.492l-6.289-.438zm10.619 5.409 5.357.755v-1.544l-3.7-.525v-4.456l-1.657-.23zm9.084 1.39 5.988 1.165v-1.44l-4.33-.852v-.962l3.321.636.692-1.094-4.013-.782v-.962l4.236.828v-1.39l-5.894-1.157zm-83.954 25.468c-1.511.55-3.154.62-4.706.201l.9-3.482a5.45 5.45 0 0 0 3.895.006c1.149-.418 1.587-1.152 1.587-1.89 0-.778-.363-1.178-2.493-1.313-2.461-.147-3.313-1.366-3.313-3.169 0-2.183 1.652-4.923 4.905-6.127a6.47 6.47 0 0 1 3.903-.29l-.817 3.422a4.85 4.85 0 0 0-3.084-.088c-1.177.433-1.654 1.2-1.654 1.814 0 .983.7 1.05 2.45 1.204 2.614.218 3.397 1.288 3.397 3.208-.002 2.39-1.623 5.262-4.97 6.504M56.7 87.018c-2.065.539-3.457 2.798-3.457 5.424 0 2.614 1.393 4.173 3.457 3.63 2.068-.539 3.453-2.818 3.453-5.432 0-2.623-1.385-4.162-3.453-3.622m-.054 12.075c-4.04 1.06-6.618-1.523-6.618-5.812 0-4.302 2.705-8.26 6.746-9.317 4.02-1.045 6.617 1.529 6.617 5.826 0 4.292-2.72 8.249-6.744 9.303m13.231-3.33c-3.33.594-5.18-1.16-5.18-5.165v-8.367l2.864-.603v8.188c0 2.061.74 3.166 2.383 2.873 1.619-.305 2.36-1.685 2.36-3.76v-8.204l3.977-.61-1.108 1.32v7.195c-.003 4.082-1.978 6.55-5.296 7.133m18.806-17.07.069 14.145-8.97-7.098 1.357 1.995-.057 5.532-3.315.392-.006-14.214 7.646 6.376.046-6.866zm7.302 10.585c1.79.067 2.222-1.033 2.222-2.072V83.42c0-2.84-1.844-2.18-3.558-2.29v8.214zm4.987-6.564v4.548c0 3.706-2.86 4.99-4.37 4.954-2.767.092-4.916.111-4.916.111l.019-12.39-1.211-1.368s3.466-.226 6.53-.262c1.912.092 3.948.818 3.948 4.407m11.289-3.918.017 2.874-5.36-.32-.033 2.677 4.57.403-1.534 2.332-3.02-.27.009 2.928 5.397.44.028 2.8-8.555-.502-.063-7.085-1.59-1.468 1.588.156.027-5.418zm9.695 14.903-2.425-5.49-1.449-.217v5.23l-3.019-.349V80.54l-1.495-1.63 7.136.774a4.88 4.88 0 0 1 3.075 1.713 4.9 4.9 0 0 1 1.13 3.342 3.3 3.3 0 0 1-.563 2.082 3.28 3.28 0 0 1-1.729 1.283l2.883 6.209zm-1.736-11.175-2.136-.31v3.095l2.226.335.394.02a1.16 1.16 0 0 0 1.131-.798q.078-.239.053-.49a1.86 1.86 0 0 0-1.67-1.853l.044-.217m10.593 13.277a11 11 0 0 1-4.551-2.316l.803-2.761a8.3 8.3 0 0 0 3.788 2.093c1.098.218 1.507-.228 1.494-.922-.013-.723-.358-1.284-2.43-2.547-2.386-1.462-3.241-3.047-3.267-4.724-.034-2.046 1.525-3.704 4.663-3.08a8.96 8.96 0 0 1 3.775 1.823l-.74 2.741a7.54 7.54 0 0 0-2.984-1.73c-1.145-.223-1.593.241-1.576.812.016.91.7 1.351 2.397 2.43 2.532 1.604 3.305 3 3.338 4.798.044 2.219-1.482 4.025-4.71 3.383m10.981-5.698V83.76l8.507 2.284v3.087l-5.393-1.445v3.03l4.663 1.249-1.546 2.104-3.118-.83v5.859l-3.113-.832v-7.054l-1.563-1.757zm0 1.277-1.444-1.632zm15.616 12.91c-4.302-1.581-7.222-5.808-7.222-10.071 0-4.284 2.918-6.377 7.222-4.798a11.5 11.5 0 0 1 4.124 2.76l-.936 2.485a9.3 9.3 0 0 0-3.155-2.108c-2.468-.906-3.997.188-3.997 2.856a6 6 0 0 0 1.066 3.539 5.97 5.97 0 0 0 2.931 2.238 5.37 5.37 0 0 0 3.301.154l.915 3.166a6.73 6.73 0 0 1-4.249-.221"/></g><defs><clipPath id="a"><path fill="#fff" d="M0 0h200v200H0z"/></clipPath></defs></svg>