<svg xmlns="http://www.w3.org/2000/svg" width="200" height="200" fill="none"><g clip-path="url(#a)"><path fill="#fff" d="m118.965 58.441-1.191-2.778-1.494 2.508-3.032.24 1.894 2.202-.758 2.951 2.75-1.225 2.556 1.703-.193-3.029 2.326-1.799zm-12.097-.3-1.17-1.618-.588 1.834-1.925.605 1.545 1.14-.063 2.01 1.593-1.185 1.895.717-.564-1.93 1.235-1.489zm34.26 17.47-1.234-1.77-.663 1.942-2.069.586 1.724 1.25-.121 2.17 1.778-1.196 1.924.781-.549-2.029 1.269-1.716zm-95.95 71.994c.079-.066.163-.13.242-.197-.012-.022-.044-.075-.047-.086-.096-.034-.44-.172-.844-.325.209.207.433.402.649.608m89.137-85.72-3.11 1.43-3.097-1.8.365 3.394-2.705 2.335 3.466.662 1.342 3.353 1.833-3.05 3.442-.183-2.242-2.66zm-20.419 24.38c-3.671-1.736-7.605-1.37-8.784.38-.293.434-.65.996-.724 1.224-.076.25-.163.501-.239.75.074-.23.162-.488.237-.718.067-.228.423-.79.717-1.225 1.18-1.757 5.113-2.116 8.784-.38 3.683 1.736 6.303 5.825 5.276 8.506l.009-.01c1.04-2.68-1.584-6.782-5.276-8.528m-62.66 36.262c2.63 2.919 10.57-6.316 8.947-8.93-2.147-2.703-11.29 6.316-8.947 8.93m-7.615-17.176c-5.2 5.166-13.691 6.194-17.84 1.693-5.134-5.547 1.243-15.202 6.5-24.384 5.382-9.397 9.455-17.685 3.12-18.933-4.086-.803-8.7 4.47-10.866 8.464-2.11 3.884-4.689 9.612-4.063 18.554 0 14.062 3.827 27.213 10.388 38.618zm2.445 43.088c-.022-.041-.043-.073-.063-.107-.01.01-.02.012-.023.021.025.032.056.055.087.086m106.801-37.947c-1.408-1.973-6.887 2.52-7.19 5.252 4.377-.173 8.318-3.677 7.19-5.252m-27.294 6.232c3.845-.5 7.701-3.712 7.053-5.179-.904-2.061-6.221 1.651-7.053 5.179m27.936-85.722c-.401.446-.835.956-1.28 1.488 1.127.391 3.35 1.169 4.465 1.551a78 78 0 0 0-3.185-3.039m12.334 82.53a23 23 0 0 1-2.858 2.302c-.022 2.941-3.052 3.059-3.207 2.906-.521.567-.12 3.039 2.488 3.169 4.336.218 4.27-5.5 3.696-7.618-.072-.249-.094-.508-.119-.759m-52.726-.944c-.552-1.236-3.826-.771-5.818.022l-2.026 3.155-.811 1.292c4.452.359 9.607-2.352 8.655-4.469"/><path fill="#fff" d="M100.184 0C50.456 0 10 40.527 10 90.343c0 34.626 19.247 65.624 50.226 80.99l-.432.833c-1.433 2.814-4.432 8.671-5.343 9.099l-1.698.528c-.835.202-1.692.411-2.459.997-.814.631-2.07 3.016-2.07 4.248l-.063.419c-.067.369-.164.883-.164 1.512 0 2.002.987 5.165 6.997 8.492l1.214.644c8.17 3.851 11.028.826 12.1-.312l.304-.295c.996-.718 2.197-3.14 2.23-4.168v-.122c0-.911-.324-1.694-.638-2.455l-.562-1.691-.003-.08c0-1.142 3.143-7.197 4.671-10.142 0 0 .67-1.295.878-1.7a90 90 0 0 0 24.999 3.543c49.727 0 90.183-40.527 90.183-90.342C190.367 40.527 149.911 0 100.184 0m.01 176.348a85.6 85.6 0 0 1-27.189-4.427c-2.956 5.806-5.597 11.182-7.114 14.704-1.064 2.466-1.32 3.589-.26 4.832.206.24.531.841.586 1.059.226.846-.738 1.95-1.246 2.279-1.05.687-3.315.861-7.377-1.001-4.062-1.865-5.08-4.129-5.145-5.388-.032-.606.291-2.033 1.105-2.351.206-.08.887-.174 1.201-.144 1.627.129 2.523-.933 3.889-3.25 1.94-3.29 4.655-8.102 7.53-13.334-30.482-13.175-51.834-43.512-51.919-78.872 0 .053-.01.097-.01.148l.009-.346.002.198c.161-7.977 4.72-14.446 7.139-18.668 2.979-5.184 12.38-16.1 21.034-8.788 10.841 9.16-18.608 37.329-11.09 42.535 3.79 2.617 10.417-.898 14.5-4.728l12.654-23.591 7.17-.205-30.916 58.473a82 82 0 0 0 8.09 9.787c.024.002.047-.011.078-.008l2.989 1.15a.53.53 0 0 1 .25.215l.075.111c.77-.708 1.485-1.477 2.223-2.224-.01-.003-.032-.034-.033-.035q-2.286-.67-4.57-1.343a.51.51 0 0 1-.368-.44.517.517 0 0 1 .459-.569.5.5 0 0 1 .2.019l4.712 1.379a.6.6 0 0 1 .24.152l.095.108a76 76 0 0 0 1.852-1.977 1 1 0 0 0-.087-.095l-5.156-1.574a.51.51 0 0 1-.346-.642.53.53 0 0 1 .252-.308.5.5 0 0 1 .396-.038l5.285 1.607c.087.03.164.076.228.149l.099.101c.954-1.098 1.905-2.205 2.794-3.366-.034-.053-.097-.13-.109-.152-.431-.043-5.286-.552-5.286-.552a.518.518 0 0 1-.465-.512l.001-.054a.52.52 0 0 1 .572-.465l5.514.576a.53.53 0 0 1 .369.216l.033.053c.757-1.028 1.514-2.05 2.219-3.114-1.397-.163-5.143-.607-5.143-.607a.52.52 0 0 1-.454-.575.525.525 0 0 1 .574-.455l5.652.663c.606-.945 1.16-1.931 1.723-2.908l-4.376-.411a.51.51 0 0 1-.466-.564.52.52 0 0 1 .563-.467l4.864.455c.065-.118.14-.226.196-.337.02-.02.01-.044.03-.064.001-.009.012-.001.013-.01.065-.12.141-.228.206-.347a.52.52 0 0 1 .51-.268.5.5 0 0 1 .193.061.51.51 0 0 1 .207.696c-.022.052-.054.095-.076.139l4.04 3.725a.519.519 0 0 1-.33.902.53.53 0 0 1-.373-.135l-3.879-3.58a70 70 0 0 1-2.198 3.702l3.617 4.588a.5.5 0 0 1 .11.381.519.519 0 0 1-.922.26s-2.44-3.102-3.393-4.308c-.787 1.192-1.62 2.333-2.467 3.471l3.01 4.242a.518.518 0 0 1-.844.597s-1.755-2.474-2.804-3.948c-.858 1.117-1.788 2.171-2.71 3.234l3.09 3.277a.5.5 0 0 1 .143.37.52.52 0 0 1-.331.471.52.52 0 0 1-.562-.126s-1.894-2.008-3.011-3.2a67 67 0 0 1-1.884 2.004l2.673 3.029a.51.51 0 0 1 .073.569.5.5 0 0 1-.124.159.502.502 0 0 1-.567.079.5.5 0 0 1-.16-.123l-2.63-2.984c-.761.77-1.498 1.563-2.299 2.3a.2.2 0 0 1-.052.043l1.669 2.671c.062.097.062.205.052.312 6.24 5.352 13.258 9.767 20.788 13.02 4.483-8.244 8.882-16.567 11.1-21.08 1.181-2.409 4.952-9.808 9.274-18.945-2.146 1.649-6.566 3.808-7.701 2.049-2.352-3.667 4.842-9.483 3.486-11.11-.823-.977-4.202 1.572-6.963 4.753 0 0-1.53 2.942-3.62 6.652l-4.916.044c-.296-.229 6.249-9.831 4.981-10.949-1.809-1.583-12.402 15.572-17.384 11.935-.422-.313-1.54-1.584-.044-4.794-2.23 2.95-7.647 5.337-9.931 3.353-4.887-4.245 8.394-18.5 13.754-13.563.421.389.566.767.54 1.062l.718-1.139 4.843-.044c-2.2 5.936-6.76 11.307-5.591 12.153 2.036 1.473 13.756-16.517 17.742-12.599 1.236 1.217 1.15 2.812.825 3.68 2.827-2.951 8.794-5.794 10.723-3.788 2.349 2.44-4.79 9.634-3.219 10.635.641.412 2.231-.554 3.078-1.13 3.378-7.236 6.943-15.278 9.826-22.754-.144-.065-6.293-2.766-12.111-5.036-6.781-2.655-13.788-10.014-12.067-18.652 2.026-10.178 14.982-10.383 20.799-10.828 1.656-.122 2.719.42 0 .693-3.068.313-4.712.457-7.701 1.844 7.244-.237 20.307 2.311 30.977 7.653 7.811 3.915 16.315 10.261 21.199 15.254 2.48 2.539 3.368 2.982 1.495-.575-.358-.675-.76-1.324-1.605-2.412-1.191-1.55-2.902-4.067.684-.692 3.682 3.45 8.362 12.26 6.065 23.08 0 0-.042.586-.109.88-.064.085-2.221.965-3.02 1.529 1.114-2.335 2.024-5.286 2.012-8.563-.347-5.368-1.267-7.063-6.51-12.131-4.58-4.426-13.886-11.206-20.848-14.701-16.053-8.064-40.22-12.306-41.833.575-.966 7.766 6.435 13.474 10.58 15.083 3.176 1.246 9.188 3.223 12.639 5.067l-.541 1.66q1.097-2.837 2.102-5.707c.218-.642.402-1.248.608-1.876-.196.584-.393 1.16-.607 1.769-5.818-3.888-9.24-8.073-7.658-11.091 2.935-5.609 12.098-4.665 21.672.044 9.567 4.709 16.043 11.859 13.336 17.003-1.604 3.049-7.086 2.986-13.779.75-.011.02-.021.03-.033.05-9.586 13.35-24.155 37.526-29.623 47.085-2.438 4.272-6.76 12.261-10.964 20.343 7.704 2.527 15.825 3.875 24.102 3.808 23.136-.202 43.943-9.647 58.544-25.063l-3.197 2.193a.5.5 0 0 1-.186.081.53.53 0 0 1-.391-.072.5.5 0 0 1-.146-.141.527.527 0 0 1 .137-.725l3.382-2.314a27 27 0 0 1-2.154-1.636l-4.789 3.2a.509.509 0 0 1-.716-.142.52.52 0 0 1-.079-.388.5.5 0 0 1 .221-.328s3.833-2.561 4.561-3.036a48 48 0 0 1-1.203-1.088.52.52 0 0 1-.388-.096c-.141-.099-.186-.26-.185-.424-.043.085-.077.172-.164.219l-5.058 2.994a.5.5 0 0 1-.389.059.5.5 0 0 1-.315-.235.52.52 0 0 1 .175-.714l5.058-2.994.022-.001a94 94 0 0 1-1.484-1.517l-5.873 2.668a.523.523 0 0 1-.69-.259.524.524 0 0 1 .259-.684s4.354-1.975 5.585-2.496a100 100 0 0 1-2.011-2.212.48.48 0 0 1-.228.151l-5.514 1.614a.51.51 0 0 1-.548-.176.5.5 0 0 1-.092-.18q-.029-.099-.019-.2a.51.51 0 0 1 .366-.44l5.341-1.562a127 127 0 0 1-2.091-2.485l-6.762.228a.5.5 0 0 1-.373-.138.523.523 0 0 1-.029-.735.518.518 0 0 1 .362-.167l5.989-.197a101 101 0 0 1-2.914-3.831l-5.035.913a.513.513 0 0 1-.607-.51.52.52 0 0 1 .431-.51s3.445-.629 4.561-.827a33 33 0 0 1-1.481-2.322.524.524 0 0 1 .217-.68.524.524 0 0 1 .691.173c.326.596.822 1.366 1.42 2.245.517-.511 1.211-1.206 1.211-1.206a.5.5 0 0 1 .364-.154.518.518 0 0 1 .363.882l-1.333 1.344a90 90 0 0 0 2.61 3.462l3.032-3.441a.5.5 0 0 1 .354-.176.5.5 0 0 1 .373.132.52.52 0 0 1 .174.355.5.5 0 0 1-.131.373l-3.15 3.58c.769.955 1.581 1.932 2.427 2.91 1.038-1.228 2.933-3.483 2.933-3.483a.517.517 0 0 1 .726-.064.526.526 0 0 1 .064.736l-3.033 3.612a90 90 0 0 0 2.102 2.314c.898-1.11 2.892-3.594 2.892-3.594a.51.51 0 0 1 .855.079.5.5 0 0 1 .041.393.5.5 0 0 1-.094.179s-2.024 2.517-3 3.69a62 62 0 0 0 1.949 1.955l3.218-4.43a.516.516 0 1 1 .835.608l-3.296 4.547c.393.378.791.727 1.182 1.065l2.677-3.256a.526.526 0 0 1 .734-.067.52.52 0 0 1 .067.728s-1.732 2.105-2.697 3.266a25 25 0 0 0 2.373 1.769l1.528-3.061a.515.515 0 0 1 .504-.29.517.517 0 0 1 .426.749l-1.192 2.386a77.2 77.2 0 0 0 15.264-26.085s6.379-5.656 8.794-9.462c0 0-.369 1.693-.715 3.08-9.12 37.723-43.056 65.742-83.523 65.742M66.03 124.449a.52.52 0 0 1 .555-.139.5.5 0 0 1 .172.105l2.415 2.191a.5.5 0 0 1 .168.357.52.52 0 0 1-.49.541.52.52 0 0 1-.372-.136l-2.414-2.182a.52.52 0 0 1-.034-.737m3.9-4.417a.51.51 0 0 1 .714-.153l1.14.729a.52.52 0 0 1 .16.716.524.524 0 0 1-.715.161l-1.147-.737a.52.52 0 0 1-.226-.326.52.52 0 0 1 .074-.39m-2.156-2.193a.51.51 0 0 1 .163.55.522.522 0 0 1-.821.253l-1.267-1.04a.52.52 0 0 1 .658-.803zm33.007-61.004c5.23-3.625 17.88-6.747 29.191-.63 8.34 4.495 14.364 11.915 16.094 22.734l-6.324 3.625c-5.977-6.792-11.375-10.82-15.513-12.892-4.137-2.072-13.789-6.217-22.984-6.682zm27.283 53.256c-.487.175-1.702.826-2.644 1.422-1.895-2.16-8.566-6.791-12.13-8.029-.054-.02.9-1.279.9-1.279 3.681 1.497 12.434 6.586 13.818 7.854zm7.701 12.685a.514.514 0 0 1 .465-.565l2.297-.236a.52.52 0 0 1 .564.466.5.5 0 0 1-.27.509.5.5 0 0 1-.195.056l-2.297.229a.509.509 0 0 1-.564-.459m19.607 5.392v-.812h3.651v.812h-1.364v3.723h-.923v-3.723zm8.894.12-1.304 3.603h-.896l-1.268-3.603h-.021v3.603h-.922v-4.535h1.602l1.051 2.962h.022l1.095-2.962h1.592v4.535h-.93v-3.603zm6.875-8.919c-.208.728-.509 1.445-1.006 2.118-1.905 2.581-5.156 2.928-7.862 2.472-1.725-.301-3.662-1.451-4.463-2.745a6.8 6.8 0 0 1-.694-1.563c-6.825 4.111-15.295 5.231-17.365 1.203a4.6 4.6 0 0 1-.488-1.658c-7.582 5.456-17.567 7.16-19.689 2.506a4.6 4.6 0 0 1-.402-1.749l-.197.826c-4.874 4.428-10.116 6.087-11.84 4.763-2.88-2.203-.258-5.067-1.72-6.304-.401-.336-1.072-.422-2.166-.338l2.024-3.136 1.939-3.123c.023-.011.056-.021.087-.032l1.614-2.508c3.042-1.562 8.003-2.398 8.838.446 1.161 3.981-4.384 7.422-8.23 8.06 2.925.534.032 3.799 3.031 4.19 1.301.173 5.037-2.486 7.105-5.231 2.743-6.443 16.248-12.109 18.135-7.27 1.634 4.168-6.1 7.901-12.468 7.964-.27.001-.175-.073-.205.001-.554 1.617.236 3.386 3.217 3.363 2.893-.03 7.149-1.214 11.244-4.709 2.371-6.381 16.254-11.761 17.525-7.268 1.116 3.938-5.774 7.302-11.612 7.757-.261.022-.174-.066-.197.001-.561 1.617.229 3.395 3.218 3.363 2.448-.022 5.094-1.021 8.394-2.854.229-3.169 3.815-4.913 5.502-3.364 1.201-.855 2.462-1.909 3.445-3.06q.095-.822.23-1.638c.574-3.503 5.1-7.148 6.703-6 1.094.783.49 3.387-2.469 5.938-.553.542-.92.629-.118 2.287.39.802.887 2.116 1.124 3.604 5.255-3.876 8.136-10.309 8.647-25.132l-.045-.064c0-21.54-8.503-41.08-22.313-55.48-.12.206-.351.326-.586.248l-5.512-1.91c-.598.736-1.193 1.476-1.745 2.171 1.289.618 4.201 2.006 4.201 2.006a.52.52 0 0 1 .293.497.51.51 0 0 1-.346.457.52.52 0 0 1-.391-.02s-3.117-1.486-4.406-2.116c-.411.521-.781.998-1.062 1.358 9.661 6.997 16.4 17.911 17.645 30.164-.01.128-14.55 8.407-18.536 10.676a31 31 0 0 0-.668-3.212l15.965-10.33c.152-1.16-.79-5.122-1.118-5.772l-16.452 11.405a31.6 31.6 0 0 0-4.182-6.937l15.958-14.039c-2.306-3.626-4.658-6.12-7.616-8.704l-13.671 17.438a31.7 31.7 0 0 0-9.695-5.197l7.714-20.095c-3.737-1.206-7.984-1.67-12.239-1.269l-3.303 19.89c-.651-.035-1.301-.099-1.963-.099-2.164 0-4.269.226-6.314.64l.378-18.068c-1.754.63-4.027 1.725-5.694 3.05l.322 16.512a30.5 30.5 0 0 0-3.845 1.748c-.291-4.6-1.126-18.099-1.03-18.172a41.4 41.4 0 0 1 24.045-7.65c8.625 0 16.704 2.778 23.453 7.43.292-.378.651-.845 1.05-1.346l-4.081-4.088a.527.527 0 0 1 0-.729.53.53 0 0 1 .368-.152.52.52 0 0 1 .367.152s3.088 3.093 3.976 4.006a130 130 0 0 1 1.753-2.173l-3.066-4.394a.52.52 0 0 1 .702-.743.5.5 0 0 1 .144.148s2.191 3.145 2.904 4.156q.686-.82 1.397-1.62c-14.082-12.41-32.539-19.943-52.763-19.943-22.149 0-42.188 9.02-56.67 23.591.26.207.509.423.758.64l5.859-2.17a.514.514 0 0 1 .53.86.5.5 0 0 1-.172.106l-5.308 1.973c.856.75 1.68 1.531 2.502 2.322l5.429-2.04a.52.52 0 0 1 .657.697.52.52 0 0 1-.29.27L48.3 38.491c.402.401.79.823 1.182 1.226l5.511-1.768a.519.519 0 0 1 .315.988L50.27 40.56q.894.946 1.753 1.921l6.946-1.086a.516.516 0 0 1 .594.433.53.53 0 0 1-.432.596l-6.328.988c.575.684 1.159 1.368 1.71 2.072l6.87-.986a.5.5 0 0 1 .52.244.5.5 0 0 1 .066.191.52.52 0 0 1-.435.594l-6.314.901a71 71 0 0 1 2.88 4.06l7.919-.694a.523.523 0 0 1 .539.677.51.51 0 0 1-.451.354l-7.347.64a79 79 0 0 1 2.567 4.306l7.712-.218a.51.51 0 0 1 .531.501v.012c0 .281-.225.51-.507.52 0 0-5.36.152-7.214.206q1.066 2.01 2.002 4.08l7.3.435c.283.02.5.26.488.552a.52.52 0 0 1-.551.48s-4.886-.293-6.76-.403c.738 1.702 1.442 3.418 2.058 5.174l7.767.643c.283.022.499.28.469.563a.51.51 0 0 1-.555.468l-7.334-.609a76 76 0 0 1 1.542 5.297l7.233 1.897a.525.525 0 0 1 .368.63.517.517 0 0 1-.636.369l-6.664-1.746a78 78 0 0 1 1.127 5.728c.061.109.08.235.053.357l.001.034 6.705 2.353a.527.527 0 0 1 .323.663.52.52 0 0 1-.46.345.5.5 0 0 1-.2-.03l-6.205-2.17c.335 2.43.553 4.883.65 7.367l7.191 3.05a.513.513 0 0 1 .273.675.51.51 0 0 1-.674.28L70.604 90.4c.02.649.055 1.29.055 1.932 0 1.713-.064 3.363-.165 4.99l6.684 2.711a.517.517 0 0 1 .284.673.52.52 0 0 1-.475.322.5.5 0 0 1-.197-.038l-6.393-2.583a71 71 0 0 1-.844 6.586l6.826 2.866a.52.52 0 0 1-.004.959.52.52 0 0 1-.397-.003s-5.222-2.193-6.6-2.777a86 86 0 0 1-.898 4.066l3.316 2.79a.518.518 0 0 1-.661.793l-3.563-2.995c-.023-.02-.022-.054-.043-.077a.4.4 0 0 1-.087-.172.4.4 0 0 1-.024-.186c0-.032-.022-.055-.012-.087.337-1.345.617-2.649.869-3.949-1.746.715-5.807 2.366-5.807 2.366a.517.517 0 0 1-.39-.957l6.423-2.616c.39-2.147.651-4.272.834-6.411l-5.048 3.375a.53.53 0 0 1-.724-.142.534.534 0 0 1 .149-.725l5.743-3.832c.107-1.616.171-3.254.171-4.946 0-.597-.04-1.184-.053-1.782l-5.372 4.264a.516.516 0 0 1-.771-.66.5.5 0 0 1 .131-.154l5.979-4.744a78 78 0 0 0-.683-7.507l-4.613 4.62a.516.516 0 1 1-.728-.736l5.157-5.165a77 77 0 0 0-1.15-5.782l-1.557 1.552a.52.52 0 0 1-.843-.173.52.52 0 0 1 .115-.564l1.982-1.985a80 80 0 0 0-1.496-5.09l-4.808 4.818a.52.52 0 1 1-.735-.737l5.178-5.179a75 75 0 0 0-2.048-5.13l-4.583 4.491a.523.523 0 0 1-.843-.178.52.52 0 0 1 .12-.56l4.854-4.762a73 73 0 0 0-1.973-4.014c-1.085 1.148-4.333 4.547-4.333 4.547a.515.515 0 0 1-.888-.343.52.52 0 0 1 .14-.373l4.58-4.798a79 79 0 0 0-2.556-4.273l-4.028 4.372a.517.517 0 0 1-.76-.705l4.138-4.49c.021-.022.054-.014.075-.034a72 72 0 0 0-2.241-3.202l-3.344 5.03a.526.526 0 0 1-.716.141.515.515 0 0 1-.142-.716l3.544-5.337q-.194-.261-.39-.52a.47.47 0 0 1-.217-.293c-.443-.564-.9-1.107-1.355-1.66l-2.88 5.456a.518.518 0 0 1-.972-.292.5.5 0 0 1 .061-.195l3.067-5.818q-.065-.08-.132-.16c-.173-.065-.322-.177-.347-.372-.008-.01.003-.02.002-.032-.34-.39-.694-.782-1.05-1.172l-2.22 5.46a.507.507 0 0 1-.672.282.514.514 0 0 1-.283-.673l2.403-5.894a79 79 0 0 0-2.121-2.18l-2.317 5.48a.517.517 0 1 1-.954-.402l2.469-5.837a70 70 0 0 0-2.288-2.115l-1.85 5.664a.52.52 0 0 1-.662.352.52.52 0 0 1-.324-.677l1.981-6.065c-.246-.198-.487-.413-.734-.61-8.46 8.734-14.96 19.382-18.762 31.252l-8.34 8.852C22.638 34.527 57.79 3.93 100.076 3.93c47.464 0 85.939 38.55 85.939 86.098l.054.142c.042 2.224-.293 8.617-1.486 11.101-4.169 8.603-10.745 15.798-13.442 18.098"/><path fill="#E4002B" d="M107.299 112.609c-.031.011-.063.021-.086.032l-1.94 3.123z"/><path fill="#003087" d="M104.387 87.87c.074-.228.432-.79.724-1.225 1.179-1.75 5.114-2.115 8.785-.38 3.692 1.746 6.316 5.847 5.274 8.529l-.009.01-.001.022c-.193.489-.574 1.149-.715 1.336q-.892 1.184-1.852 2.518c6.693 2.235 12.175 2.299 13.779-.75 2.706-5.144-3.77-12.294-13.336-17.002-9.574-4.71-18.737-5.653-21.672-.045-1.582 3.019 1.84 7.205 7.658 11.09.214-.608.411-1.184.607-1.768.173-.531.356-1.064.519-1.584.077-.25.164-.501.239-.751m8.903 15.614c3.565 1.238 10.235 5.869 12.13 8.029.942-.596 2.156-1.247 2.644-1.422l-.055-.031c-1.384-1.268-10.137-6.357-13.818-7.854-.001 0-.955 1.258-.901 1.278"/><path fill="#E4002B" d="m186.07 90.17-.054-.142c0-47.548-38.476-86.098-85.939-86.098-42.287 0-77.437 30.598-84.607 70.897l8.34-8.852c3.802-11.871 10.302-22.518 18.762-31.253.247.198.487.412.734.61l-1.981 6.066a.52.52 0 0 0 .143.573.517.517 0 0 0 .842-.248l1.85-5.664a69 69 0 0 1 2.289 2.115L43.98 44.01a.519.519 0 0 0 .672.68.52.52 0 0 0 .282-.278l2.316-5.481q1.082 1.07 2.122 2.18l-2.403 5.895a.515.515 0 0 0 .282.673.504.504 0 0 0 .672-.283l2.22-5.46c.357.39.712.78 1.05 1.173 0 .012-.01.022-.002.032.026.195.174.307.348.37l.132.162-3.067 5.818a.52.52 0 0 0 .4.782.51.51 0 0 0 .511-.295l2.88-5.456c.456.553.912 1.096 1.355 1.66a.47.47 0 0 0 .217.292l.39.52-3.544 5.338a.514.514 0 0 0 .528.79.53.53 0 0 0 .33-.215l3.347-5.033a71 71 0 0 1 2.24 3.202c-.021.02-.053.012-.074.033l-4.14 4.491a.517.517 0 0 0 .031.736.514.514 0 0 0 .728-.031l4.028-4.372a79 79 0 0 1 2.556 4.273l-4.58 4.798a.525.525 0 0 0 .02.736.515.515 0 0 0 .728-.02s3.247-3.399 4.333-4.547a74 74 0 0 1 1.973 4.014l-4.854 4.762a.516.516 0 1 0 .723.738s3.49-3.419 4.583-4.492a75 75 0 0 1 2.048 5.131l-5.178 5.18a.519.519 0 0 0 .367.889.52.52 0 0 0 .367-.153l4.809-4.818a80 80 0 0 1 1.495 5.09L65.24 75.5a.518.518 0 0 0 .728.736l1.557-1.552q.685 2.869 1.15 5.783l-5.157 5.165a.517.517 0 0 0 .728.736l4.613-4.62a78 78 0 0 1 .682 7.507l-5.98 4.746a.518.518 0 1 0 .64.813l5.372-4.264c.012.597.053 1.184.053 1.782 0 1.692-.064 3.33-.172 4.946l-5.742 3.832a.53.53 0 0 0-.15.725.52.52 0 0 0 .334.218c.135.027.275 0 .39-.076 0 0 3.607-2.409 5.049-3.375a69 69 0 0 1-.834 6.411l-6.423 2.616a.52.52 0 0 0-.282.674.517.517 0 0 0 .672.283s4.06-1.651 5.807-2.366a74 74 0 0 1-.869 3.949c-.01.032.012.056.012.087a.4.4 0 0 0 .024.186.4.4 0 0 0 .087.172c.02.023.02.056.043.077l3.563 2.995a.514.514 0 0 0 .7-.086.52.52 0 0 0-.039-.707l-3.316-2.79q.498-2.022.899-4.066c1.376.584 6.599 2.777 6.599 2.777a.52.52 0 1 0 .4-.956l-6.825-2.866q.577-3.273.844-6.586l6.393 2.583a.515.515 0 0 0 .561-.115.5.5 0 0 0 .15-.367.51.51 0 0 0-.323-.475l-6.684-2.71c.1-1.628.164-3.278.164-4.99 0-.643-.034-1.283-.055-1.933l6.758 2.874a.51.51 0 0 0 .673-.28.514.514 0 0 0-.272-.674l-7.19-3.05a76 76 0 0 0-.651-7.368l6.205 2.171a.513.513 0 0 0 .633-.713.53.53 0 0 0-.296-.265l-6.705-2.354-.001-.034a.5.5 0 0 0-.053-.356 78 78 0 0 0-1.127-5.729l6.663 1.746a.516.516 0 0 0 .58-.758.53.53 0 0 0-.311-.24l-7.234-1.898a75 75 0 0 0-1.54-5.296l7.333.61a.507.507 0 0 0 .554-.469.517.517 0 0 0-.468-.563l-7.767-.643c-.616-1.756-1.319-3.472-2.058-5.174 1.874.11 6.76.403 6.76.403a.52.52 0 0 0 .55-.48.525.525 0 0 0-.486-.552l-7.3-.435a72 72 0 0 0-2.003-4.08c1.852-.054 7.214-.206 7.214-.206a.52.52 0 0 0 .507-.52v-.012a.513.513 0 0 0-.53-.501l-7.713.218a80 80 0 0 0-2.567-4.306l7.346-.64a.515.515 0 0 0 .29-.908.53.53 0 0 0-.378-.123l-7.918.693a72 72 0 0 0-2.88-4.06l6.313-.9a.52.52 0 0 0 .436-.594.51.51 0 0 0-.585-.435l-6.87.986c-.553-.704-1.136-1.388-1.711-2.072l6.328-.988a.526.526 0 0 0 .362-.787.52.52 0 0 0-.524-.242l-6.946 1.086a76 76 0 0 0-1.753-1.921l5.035-1.616a.519.519 0 0 0-.314-.988l-5.511 1.768c-.392-.404-.78-.825-1.182-1.226l4.96-1.865a.513.513 0 0 0 .196-.837.52.52 0 0 0-.562-.13l-5.429 2.04a72 72 0 0 0-2.503-2.321l5.31-1.973a.517.517 0 0 0-.358-.967l-5.859 2.17c-.25-.216-.5-.432-.758-.64 14.482-14.571 34.52-23.59 56.67-23.59 20.224 0 38.682 7.533 52.763 19.943a61 61 0 0 0-1.397 1.62c-.713-1.012-2.904-4.156-2.904-4.156a.52.52 0 0 0-.875.007.52.52 0 0 0 .029.588l3.066 4.394c-.605.73-1.202 1.477-1.753 2.173-.888-.913-3.976-4.006-3.976-4.006a.5.5 0 0 0-.367-.153.516.516 0 0 0-.516.517c0 .137.053.267.148.365l4.081 4.088c-.398.5-.759.968-1.05 1.346-6.748-4.652-14.828-7.431-23.453-7.431a41.4 41.4 0 0 0-24.045 7.65c-.096.075.738 13.573 1.03 18.173a30 30 0 0 1 3.845-1.748l-.323-16.513c1.668-1.324 3.941-2.42 5.694-3.05l-.377 18.068a32 32 0 0 1 6.314-.639c.662 0 1.312.064 1.962.099l3.304-19.89c4.255-.402 8.503.063 12.239 1.269l-7.714 20.095a31.8 31.8 0 0 1 9.695 5.197l13.671-17.438c2.958 2.583 5.309 5.078 7.615 8.704l-15.958 14.039a31.6 31.6 0 0 1 4.183 6.937l16.452-11.405c.328.65 1.27 4.61 1.118 5.771l-15.965 10.327q.419 1.588.668 3.211c3.986-2.267 18.526-10.547 18.535-10.675-1.244-12.253-7.984-23.167-17.645-30.164.282-.36.651-.837 1.063-1.358a735 735 0 0 0 4.406 2.116.518.518 0 0 0 .444-.934s-2.912-1.388-4.202-2.006c.552-.695 1.147-1.435 1.745-2.172l5.513 1.91c.235.078.466-.041.586-.247 13.808 14.399 22.313 33.94 22.313 55.48l.044.063c-.511 14.823-3.392 21.256-8.646 25.132a13.4 13.4 0 0 0-1.124-3.604c-.802-1.658-.436-1.746.117-2.287 2.96-2.551 3.564-5.155 2.47-5.938-1.603-1.147-6.129 2.498-6.703 6a35 35 0 0 0-.23 1.638c-.983 1.151-2.244 2.204-3.445 3.06-1.687-1.549-5.273.196-5.502 3.364-3.301 1.833-5.948 2.833-8.394 2.854-2.989.032-3.779-1.746-3.218-3.363.022-.066-.065.021.197-.001 5.838-.455 12.728-3.819 11.612-7.757-1.271-4.493-15.154.887-17.526 7.268-4.094 3.495-8.35 4.678-11.243 4.709-2.982.023-3.771-1.746-3.217-3.363.03-.074-.066 0 .204-.001 6.37-.064 14.104-3.796 12.468-7.964-1.886-4.839-15.392.827-18.135 7.27-2.067 2.746-5.802 5.404-7.104 5.231-2.999-.391-.106-3.656-3.031-4.19 3.844-.638 9.39-4.079 8.23-8.06-.835-2.844-5.795-2.008-8.838-.446l-1.614 2.508c1.993-.794 5.266-1.258 5.818-.022.952 2.117-4.203 4.828-8.655 4.47l.811-1.292-2.024 3.136c1.094-.084 1.765.003 2.165.338 1.463 1.236-1.16 4.101 1.721 6.304 1.723 1.323 6.966-.335 11.84-4.763l.197-.826c.017.604.154 1.199.401 1.749 2.124 4.654 12.108 2.95 19.69-2.506.056.553.207 1.106.488 1.658 2.068 4.028 10.54 2.908 17.365-1.203.151.501.364 1.021.693 1.563.802 1.293 2.739 2.444 4.464 2.745 2.706.457 5.958.109 7.862-2.472.498-.673.798-1.39 1.006-2.118 2.697-2.3 9.273-9.495 13.441-18.099 1.193-2.485 1.529-8.879 1.487-11.102m-33.841-57.68c.445-.532.879-1.042 1.28-1.488a79 79 0 0 1 3.185 3.039c-1.115-.382-3.339-1.161-4.465-1.551m.638 78.002c1.127 1.575-2.813 5.079-7.19 5.252.304-2.732 5.783-7.225 7.19-5.252m-20.241 1.053c.648 1.467-3.208 4.679-7.053 5.179.832-3.528 6.149-7.24 7.053-5.179m29.642 10.362c-2.609-.13-3.01-2.601-2.489-3.168.154.153 3.185.035 3.207-2.906a23 23 0 0 0 2.858-2.302c.025.251.047.51.12.759.573 2.118.639 7.835-3.696 7.617"/><path fill="#E4002B" d="M184.433 107.522c-2.415 3.806-8.794 9.462-8.794 9.462a77.2 77.2 0 0 1-15.264 26.085l1.192-2.386a.52.52 0 0 0-.426-.749.51.51 0 0 0-.38.128.5.5 0 0 0-.124.162l-1.528 3.061a25 25 0 0 1-2.372-1.769c.964-1.161 2.696-3.266 2.696-3.266a.519.519 0 0 0-.801-.661l-2.677 3.256c-.39-.338-.789-.687-1.182-1.065l3.296-4.547a.529.529 0 0 0 .026-.577.51.51 0 0 0-.523-.24.52.52 0 0 0-.338.209l-3.218 4.43a61 61 0 0 1-1.949-1.955c.976-1.174 3-3.69 3-3.69a.52.52 0 0 0 .113-.379.5.5 0 0 0-.188-.348.513.513 0 0 0-.573-.055.5.5 0 0 0-.154.131s-1.994 2.485-2.892 3.594a90 90 0 0 1-2.102-2.314l3.033-3.612a.53.53 0 0 0-.064-.736.52.52 0 0 0-.726.064s-1.895 2.256-2.933 3.483a109 109 0 0 1-2.427-2.91l3.151-3.58a.51.51 0 0 0 .079-.569.5.5 0 0 0-.123-.159.52.52 0 0 0-.373-.132.5.5 0 0 0-.354.176l-3.032 3.441a91 91 0 0 1-2.61-3.462l1.333-1.344a.5.5 0 0 0 .154-.364.52.52 0 0 0-.715-.478.5.5 0 0 0-.166.114s-.694.695-1.211 1.206c-.598-.879-1.094-1.65-1.42-2.245a.52.52 0 0 0-.691-.173.524.524 0 0 0-.217.68c.343.609.852 1.411 1.481 2.322-1.116.198-4.561.827-4.561.827a.52.52 0 0 0-.336.215.53.53 0 0 0-.085.391.513.513 0 0 0 .597.414l5.035-.913q1.411 1.95 2.914 3.831l-5.989.197a.53.53 0 0 0-.361.167.506.506 0 0 0-.091.571.52.52 0 0 0 .493.302l6.761-.228c.67.824 1.374 1.65 2.091 2.485l-5.341 1.562a.518.518 0 0 0-.347.64c.077.28.368.434.64.356l5.514-1.614a.48.48 0 0 0 .228-.151 96 96 0 0 0 2.011 2.212c-1.231.521-5.585 2.496-5.585 2.496a.523.523 0 0 0-.258.684c.118.26.43.379.689.259l5.873-2.668q.747.782 1.484 1.517l-.022.001-5.058 2.994a.522.522 0 0 0 .14.949q.1.024.201.01a.5.5 0 0 0 .188-.069l5.058-2.994c.087-.047.12-.133.164-.219-.001.163.044.325.185.424a.5.5 0 0 0 .388.096c.409.381.804.74 1.203 1.088-.727.475-4.561 3.036-4.561 3.036a.526.526 0 0 0-.221.328.5.5 0 0 0 .079.388.51.51 0 0 0 .53.22.5.5 0 0 0 .186-.078l4.789-3.2q1.036.872 2.154 1.636l-3.382 2.314a.527.527 0 0 0-.137.725.52.52 0 0 0 .334.216.525.525 0 0 0 .389-.084l3.197-2.193c-14.601 15.416-35.408 24.861-58.544 25.063-8.276.068-16.398-1.28-24.102-3.808 4.204-8.082 8.526-16.071 10.964-20.343 5.468-9.56 20.037-33.736 29.623-47.084.012-.02.022-.031.033-.051q.96-1.334 1.852-2.518c.141-.187.522-.847.715-1.336l.001-.022c1.028-2.681-1.593-6.77-5.275-8.506-3.672-1.736-7.606-1.377-8.785.38-.293.435-.65.997-.717 1.225-.073.229-.161.488-.237.718-.163.52-.346 1.053-.519 1.584-.207.629-.391 1.235-.608 1.876q-1.005 2.87-2.102 5.707c-.032.088-.073.176-.106.27-2.883 7.477-6.448 15.519-9.826 22.755-.846.576-2.437 1.542-3.078 1.13-1.57-1 5.567-8.195 3.219-10.635-1.929-2.006-7.895.837-10.722 3.788.324-.868.41-2.463-.826-3.68-3.986-3.918-15.705 14.072-17.742 12.599-1.17-.846 3.391-6.217 5.591-12.153l-4.843.044-.717 1.139c.025-.295-.12-.673-.541-1.062-5.36-4.937-18.641 9.318-13.754 13.563 2.284 1.984 7.7-.403 9.93-3.353-1.495 3.21-.377 4.481.045 4.794 4.98 3.637 15.575-13.518 17.384-11.935 1.269 1.118-5.277 10.721-4.981 10.949l4.916-.044c2.09-3.711 3.62-6.652 3.62-6.652 2.761-3.181 6.141-5.729 6.963-4.753 1.355 1.627-5.838 7.443-3.486 11.11 1.136 1.759 5.555-.4 7.701-2.049-4.322 9.137-8.093 16.537-9.273 18.945-2.22 4.513-6.618 12.836-11.101 21.08-7.53-3.253-14.547-7.668-20.787-13.02.008-.106.01-.215-.053-.312l-1.669-2.671a.2.2 0 0 0 .052-.043c.802-.737 1.539-1.53 2.298-2.3l2.632 2.984a.512.512 0 0 0 .85-.115.52.52 0 0 0-.073-.569l-2.673-3.029c.638-.661 1.277-1.321 1.884-2.004 1.117 1.192 3.011 3.2 3.011 3.2a.518.518 0 1 0 .75-.715l-3.09-3.277c.922-1.063 1.852-2.117 2.71-3.234l2.804 3.948a.515.515 0 0 0 .932-.211.52.52 0 0 0-.088-.386l-3.01-4.242c.846-1.138 1.68-2.279 2.467-3.471a2741 2741 0 0 1 3.393 4.308.519.519 0 0 0 .905-.461.5.5 0 0 0-.093-.18l-3.617-4.588a70 70 0 0 0 2.199-3.702l3.878 3.58a.524.524 0 0 0 .84-.205.515.515 0 0 0-.136-.562l-4.041-3.725c.023-.044.054-.087.076-.139a.506.506 0 0 0-.207-.696.516.516 0 0 0-.703.207c-.065.119-.14.228-.206.347-.002.009-.012.001-.014.01-.02.02-.01.044-.029.064-.057.111-.132.219-.196.337l-4.864-.455a.521.521 0 0 0-.448.847.51.51 0 0 0 .352.184l4.375.411c-.563.977-1.117 1.963-1.723 2.908l-5.652-.663a.52.52 0 0 0-.574.455l-.001.064c0 .252.194.479.455.511 0 0 3.747.444 5.143.607-.705 1.064-1.462 2.086-2.22 3.114l-.032-.053a.52.52 0 0 0-.368-.216l-5.515-.576a.5.5 0 0 0-.202.018.53.53 0 0 0-.31.252.5.5 0 0 0-.06.195v.054c0 .261.195.48.464.512 0 0 4.855.509 5.286.552.012.022.075.099.109.152-.889 1.161-1.84 2.268-2.794 3.366l-.099-.101a.5.5 0 0 0-.228-.149l-5.285-1.607a.51.51 0 0 0-.46.08.51.51 0 0 0-.21.418.51.51 0 0 0 .368.49l5.156 1.574c.01.01.064.064.087.095a77 77 0 0 1-1.852 1.977l-.096-.108a.6.6 0 0 0-.24-.152l-4.71-1.379a.51.51 0 0 0-.61.265.5.5 0 0 0-.052.234c0 .219.143.425.37.491 0 0 4.3 1.266 4.57 1.343 0 .001.024.032.033.035-.737.747-1.452 1.517-2.223 2.224l-.074-.111a.53.53 0 0 0-.25-.215l-2.99-1.15c-.03-.003-.054.01-.078.008a82 82 0 0 1-8.09-9.787L65.66 77.005l-7.169.205-12.653 23.596c-4.083 3.83-10.71 7.345-14.5 4.728-7.518-5.206 21.931-33.375 11.09-42.535-8.654-7.313-18.055 3.604-21.034 8.788-2.419 4.221-6.978 10.69-7.14 18.667.085 35.359 21.437 65.697 51.919 78.872-2.875 5.233-5.59 10.044-7.53 13.334-1.366 2.316-2.262 3.378-3.889 3.25-.314-.029-.995.064-1.201.144-.814.318-1.137 1.745-1.105 2.351.064 1.259 1.083 3.523 5.145 5.388 4.062 1.862 6.325 1.689 7.377 1.001.508-.328 1.472-1.432 1.246-2.279-.055-.218-.38-.819-.586-1.059-1.06-1.243-.804-2.365.26-4.832 1.517-3.522 4.158-8.898 7.114-14.704a85.6 85.6 0 0 0 27.189 4.427c40.467 0 74.402-28.019 83.524-65.747.347-1.386.715-3.078.715-3.078M51.237 122.526c-2.343-2.613 6.8-11.632 8.946-8.929 1.623 2.614-6.316 11.848-8.946 8.929M24.535 72.192c2.166-3.994 6.78-9.267 10.865-8.465 6.336 1.247 2.263 9.536-3.12 18.934-5.256 9.182-11.633 18.837-6.5 24.384 4.15 4.5 12.641 3.473 17.84-1.693l-12.76 24.011c-6.562-11.403-10.388-24.555-10.388-38.617-.626-8.942 1.952-14.67 4.063-18.554m21.532 76.246c-.031-.031-.063-.054-.088-.085.003-.009.013-.012.023-.021a1 1 0 0 1 .065.106m-.694-1.117c.003.012.035.064.047.086-.079.067-.163.131-.242.197-.215-.206-.44-.401-.648-.608.403.153.747.291.843.325m60.746-59.407.661-.14c-5.166 15.614-15.502 37.358-17.613 40.266 11.059-21.073 16.4-38.087 16.952-40.126m-12.195 38.152c1.438-2.81 18.693-31.827 21.444-35.973.122-.671-.68-1.127-.68-1.127-2.73 4.71-32.918 56.218-33.926 58.171 1.309-2.4 10.02-20.021 13.248-26.259 3.39-6.545 14.394-33.518 14.645-34.713 3.055-.097 6.402 1.28 8.2 3.745a77 77 0 0 0-.684 1.119c-.693 1.06-12.112 19.542-13.141 21.386-1.049 1.876-27.447 46.941-27.447 46.941 6.522-12.697 16.91-30.482 18.34-33.29m-21.882 38.115c.521-.907.066-.007.001.197-.032.09-1.334 2.484-2.87 5.315a284 284 0 0 0 2.87-5.512m-15.425 22.186c.953-.248 2.763-2.554 2.861-2.75.098-.201.36-.405.23.029-.196 1.005-.89 1.975-1.464 2.613-.338.382-.553.635-.824.701-.682.165-.931-.09-.997-.289-.01-.335.056-.27.194-.304m4.227 1.656a66 66 0 0 0-.827 3.4c-.16.723-.54.875-.942.723-.249-.088-.506-.267-.715-.441-.128-.102-.291-.13-.486-.232-.055-.023-.118.069-.175.027-.105-.065-.205-.267-.313-.316-.163-.066-.4-.218-.574-.305-.15-.078-.28-.268-.401-.32-.097-.043-.194.045-.3-.006-.262-.138-.446-.333-.653-.449a4 4 0 0 1-.453-.281c-.173-.14-.14-.262-.077-.356.088-.138.39-.21.52-.23.143-.022.651.167 1.224.44.456.225.955.515 1.344.637.324.094.715.006.89-.168.129-.129.054-.301.065-.476.02-.224.215-.464.095-.631-.152-.21-.303-.266-.453-.361-.184-.109-.369-.224-.552-.296-.335-.129-.468-.664-.075-.731 0 0 .357-.136.584-.353.129-.123.075-.27.226-.43.066-.08.249-.152.295-.236.043-.065-.045-.125.018-.195.066-.059.025-.152.132-.26.087-.09.314-.204.402-.327.087-.107.174-.216.27-.331 1.81-2.347 4.82-7.612 7.407-12.371-1.19 2.234-2.271 4.295-2.748 5.331-.998 2.178-2.58 5.954-3.358 8.086-.035.11.054.22.02.326q-.21.561-.39 1.132m7.56-12.068c-.012.058.02.14-.011.188-.183.26-.165.508-.26.803-.01.031-.108.052-.107.072.021.284-.314.472-.371.726-.118.461-.323.818-.496 1.272-.012.035-.107.045-.11.073-.022.186-.216.252-.27.404-.012.042.011.107-.01.122-.118.081-.162.195-.248.289-.033.036.009.125-.013.183-.043.122-.15.216-.174.34a6.9 6.9 0 0 1-.498 1.546c-.054.123-.142.288-.097.45-.151-.001.044.217-.13.201 0 .136.033.277-.011.391-.14.355-.175.702-.26 1.072-.013.064-.107.13-.099.202.012.282-.301.518-.302.802 0 .246-.151.405-.25.658-.065.145-.186.276-.291.427-.152.217-.403.433-.53.666-.034.072.14.202.052.244-.053.022-.097.029-.127.081-.088.181.107.441-.123.529-.149.496-.682.925-.834 1.411-.053.165.163.368.097.514-.172.367-.183.635-.311 1.011-.013.053-.067.102-.12.059-.054-.043-.066-.11-.078-.183-.01-.055-.149-.057-.129-.207.055-.499.369-.701.488-1.166a24 24 0 0 0 .379-1.759c.032-.157.096-.295.109-.468.009-.051-.033-.087-.024-.144.023-.182.185-.327.14-.524.283-.353.207-.838.5-1.214.044-.064.193-.181.227-.253.217-.406.162-.811.411-1.222.023-.045.054-.023.076-.08.043-.092.282-.26.313-.361.022-.087-.106-.187-.042-.282.022-.035-.001-.087.01-.125.075-.193.227-.331.291-.526.068-.232.153-.477.316-.659.042-.043.096-.095.098-.158.009-.065-.055-.132.14-.197-.014-.262.228-.411.292-.659.023-.113.163-.23.206-.354.054-.146.12-.29.16-.456.011-.052.056-.092.12-.071 0-.067-.02-.14.01-.195.206-.392.53-.687.653-1.137.01-.035.096-.038.117-.078.022-.052-.02-.14.013-.182.246-.295.302-.624.506-.955.024-.045-.01-.13.013-.188.064-.167.173-.311.247-.476.022-.053-.019-.133.013-.186.076-.12.16-.234.237-.356.142-.227.292-.536.444-.846-.075.251.034.613-.117.845-.007.021-.215.03-.234.086m1.138-2.178-.078.152v.097c-.052-.036-.02.077-.065.034.013.065-.01.13-.042.16-.076.074-.085.122-.119.21 0 .007.031.037.011.05-.065.054-.046.145-.108.217-.076.102-.295.172-.36.291.153-.311.305-.616.477-.833.122-.172.011-.057.088-.224.054-.122.367-.99.422-1.12 1.44-3.378 26.172-47.247 40.284-70.174 3.282-5.108 7.042-11.196 7.379-11.738.203.17.583.779.549 1.292-.04.464-6.771 10.511-7.201 11.154-15.395 23.469-39.42 67.025-41.237 70.432M14.245 90.604c0-.052.01-.097.01-.15l-.001-.196z"/><path fill="#E4002B" d="M65.78 116.873a.51.51 0 0 0-.058.571q.048.09.127.157l1.267 1.04a.521.521 0 0 0 .785-.647.5.5 0 0 0-.128-.156l-1.266-1.04a.5.5 0 0 0-.178-.095q-.098-.029-.2-.019a.52.52 0 0 0-.348.189m5.45 4.61a.524.524 0 0 0 .714-.161.523.523 0 0 0-.16-.716l-1.14-.729a.51.51 0 0 0-.715.153.514.514 0 0 0 .153.715zm-2.024 5.85a.52.52 0 0 0 .085-.566.5.5 0 0 0-.119-.162l-2.415-2.191a.518.518 0 1 0-.694.77l2.415 2.182a.506.506 0 0 0 .728-.033m69.42-4.328a.511.511 0 0 0 .465-.565.527.527 0 0 0-.564-.466l-2.297.236a.515.515 0 0 0-.447.363.512.512 0 0 0 .546.66z"/><path fill="#003087" d="M124.229 69.672c4.138 2.072 9.535 6.1 15.513 12.891l6.324-3.624c-1.73-10.819-7.755-18.239-16.095-22.734-11.311-6.117-23.96-2.995-29.191.63l.464 6.155c9.196.465 18.848 4.61 22.985 6.682m-16.073-8.029-1.896-.717-1.592 1.184.064-2.009-1.546-1.139 1.925-.606.588-1.833 1.17 1.616 1.958.085-1.234 1.49zm11.534 2.398-2.557-1.702-2.75 1.225.758-2.95-1.894-2.202 3.032-.24 1.494-2.508 1.19 2.778 2.86.773-2.327 1.8zm12.719 4.166-1.834 3.051-1.341-3.353-3.467-.662 2.706-2.336-.364-3.395 3.096 1.8 3.11-1.43-.705 3.481 2.242 2.661zm10.058 11.166-1.924-.78-1.778 1.194.121-2.17-1.724-1.248 2.069-.586.663-1.942 1.234 1.77 2.059.02-1.269 1.715zm-41.008 16.753c-3.453-1.844-9.463-3.82-12.64-5.067-4.145-1.607-11.546-7.315-10.579-15.083 1.613-12.88 25.779-8.639 41.833-.575 6.961 3.494 16.268 10.275 20.848 14.701 5.243 5.068 6.163 6.763 6.51 12.131.012 3.277-.898 6.228-2.012 8.563.799-.564 2.956-1.445 3.02-1.529.067-.294.109-.88.109-.88 2.297-10.82-2.384-19.629-6.065-23.08-3.586-3.374-1.875-.856-.684.693.845 1.088 1.247 1.736 1.605 2.411 1.872 3.557.985 3.113-1.495.576-4.884-4.994-13.388-11.339-21.199-15.255-10.67-5.34-23.733-7.888-30.977-7.652 2.989-1.387 4.633-1.53 7.7-1.844 2.72-.273 1.656-.815 0-.693-5.816.445-18.773.65-20.798 10.827-1.721 8.637 5.286 15.996 12.067 18.652 5.819 2.27 11.968 4.971 12.11 5.036.033-.096.074-.183.107-.27z"/><path fill="#fff" d="M57.419 186.96c.271-.067.487-.32.824-.701.573-.639 1.267-1.609 1.464-2.613.13-.434-.132-.23-.23-.029-.098.197-1.907 2.503-2.86 2.75-.139.034-.204-.031-.196.304.066.199.317.454.998.289"/><path fill="#fff" d="M64.57 178.481c.476-1.035 1.557-3.098 2.748-5.332-2.588 4.761-5.597 10.026-7.408 12.372l-.27.331c-.086.123-.314.237-.401.327-.108.109-.066.201-.132.26-.063.071.025.13-.018.195-.046.084-.23.156-.295.236-.151.16-.097.307-.226.43-.227.217-.584.353-.584.353-.393.067-.26.602.075.731.183.072.368.188.552.296.15.094.302.151.453.361.119.167-.076.407-.095.631-.011.175.064.347-.066.476-.175.174-.565.262-.89.168-.389-.122-.887-.412-1.343-.637-.573-.273-1.081-.461-1.224-.44-.13.02-.432.092-.52.23-.064.094-.096.216.077.356.076.065.314.207.453.281.207.115.391.311.652.449.108.05.204-.038.3.006.123.052.252.242.402.32.173.087.411.239.574.305.108.049.208.251.313.316.057.042.12-.05.175-.027.195.102.358.13.486.232.209.174.467.353.715.441.401.152.782 0 .942-.723a65 65 0 0 1 .827-3.4c.054-.19.193-.589.388-1.131.034-.106-.055-.216-.02-.326.78-2.133 2.363-5.909 3.36-8.087m51.602-87.452s.715-1.185.683-1.119c-1.797-2.464-5.146-3.842-8.199-3.745-.251 1.195-11.255 28.168-14.646 34.713-3.228 6.237-11.939 23.859-13.247 26.259 1.008-1.953 31.196-53.46 33.926-58.171 0 0 .802.456.68 1.127-2.751 4.146-20.006 33.163-21.444 35.973-1.432 2.809-11.82 20.594-18.341 33.29 0 0 26.399-45.065 27.447-46.941 1.029-1.845 12.448-20.325 13.141-21.386m-47.855 84.842c-.076.122-.161.236-.237.357-.032.053.01.133-.013.186-.075.165-.183.309-.247.476-.022.058.012.144-.013.188-.204.331-.26.659-.507.955-.033.042.01.13-.013.182-.02.041-.106.043-.116.078-.122.449-.447.745-.652 1.137-.031.055-.01.129-.01.195-.065-.022-.11.019-.121.071-.04.165-.106.31-.16.456-.044.123-.183.24-.206.354-.065.249-.306.398-.293.659-.195.065-.13.132-.14.197-.002.062-.055.114-.097.158-.163.181-.248.427-.316.659-.064.195-.218.334-.29.526-.012.038.01.09-.011.125-.064.095.064.195.042.282-.031.101-.27.269-.313.361-.023.057-.053.035-.076.08-.25.411-.194.816-.411 1.222-.034.073-.183.19-.227.253-.293.376-.217.861-.5 1.214.045.197-.118.342-.14.524-.01.057.032.092.023.144-.013.174-.076.311-.108.468q-.156.886-.379 1.759c-.12.465-.433.667-.488 1.166-.02.151.119.152.129.207.012.073.024.14.078.183.053.042.107-.007.12-.059.127-.376.138-.643.311-1.011.066-.146-.15-.349-.097-.514.153-.486.685-.914.834-1.411.23-.088.034-.349.122-.529.03-.052.076-.059.128-.081.088-.042-.087-.172-.053-.244.127-.233.378-.449.53-.666.106-.151.227-.282.291-.427.1-.253.25-.412.25-.658.001-.284.315-.519.303-.802-.008-.072.086-.139.099-.202.085-.37.12-.718.26-1.072.043-.114.011-.254.011-.391.174.016-.022-.202.13-.201-.045-.162.043-.327.097-.45a6.8 6.8 0 0 0 .498-1.546c.022-.125.13-.218.174-.34.022-.059-.02-.147.013-.183.086-.094.13-.209.247-.289.022-.015 0-.08.011-.122.054-.152.248-.218.27-.404.002-.029.098-.038.11-.073.174-.454.378-.811.496-1.272.057-.254.392-.442.371-.726 0-.02.097-.041.107-.072.096-.295.077-.543.26-.803.032-.048-.001-.13.011-.188.02-.055.228-.066.239-.086.15-.232.043-.594.117-.845-.157.309-.307.618-.448.845m42.461-72.527c.43-.642 7.16-10.689 7.2-11.154.034-.513-.345-1.121-.549-1.292-.336.542-4.096 6.63-7.378 11.738-14.112 22.928-38.844 66.796-40.284 70.174-.055.13-.368.998-.422 1.12-.076.167.034.052-.088.224-.17.217-.325.522-.477.833.065-.118.284-.188.36-.29.062-.073.043-.164.108-.218.02-.013-.012-.043-.011-.05.034-.088.043-.136.119-.21.033-.03.055-.095.042-.16.045.043.013-.07.065-.034v-.097l.078-.152c1.817-3.406 25.843-46.962 41.237-70.432"/><path fill="#fff" d="m106.78 87.773-.661.14c-.551 2.04-5.893 19.054-16.952 40.127 2.111-2.908 12.447-24.651 17.613-40.267M72.043 164.38c.065-.204.52-1.104 0-.197a290 290 0 0 1-2.87 5.512c1.537-2.831 2.838-5.225 2.87-5.315"/></g><defs><clipPath id="a"><path fill="#fff" d="M0 0h200v200H0z"/></clipPath></defs></svg>