<svg xmlns="http://www.w3.org/2000/svg" width="220" height="220" fill="none"><g clip-path="url(#a)"><path fill="#22B573" d="M110 220c60.751 0 110-49.249 110-110S170.751 0 110 0 0 49.249 0 110s49.249 110 110 110"/><path fill="#FEFFFF" d="M104.638 184.275c6.029.344 13.186-.014 18.328-.928 11.158-1.925 22.605-6.91 31.997-13.936 4.214-3.169 11.439-10.395 14.575-14.575 7.067-9.432 11.721-19.986 14.128-32.106.887-4.586 1.003-20.398.206-25.094-4.421-24.853-19.594-45.086-41.835-55.763a105 105 0 0 0-1.766-.825l2.887 10.257c1.65 5.7 5.019 17.704 7.549 26.613 6.703 23.568 6.627 23.169 6.868 29.151.117 3.128.041 6.62-.241 8.751-2.853 21.395-19.834 38.335-41.318 41.23-4.373.598-11.757.323-15.888-.564-1.527-.364-2.854-.564-2.977-.481-.117.158 6.503 24.049 7.548 27.259.22.66.296.921-.068 1.011zm-24.613-6.002a2 2 0 0 1-.138-.11c-.24-.275-2.083-6.139-4.056-13.083-1.96-6.944-5.617-19.8-8.064-28.504-2.489-8.711-4.744-17.222-5.06-18.872-.64-3.609-.722-12.045-.117-15.654a50.3 50.3 0 0 1 4.015-12.85c6.703-14.052 18.507-23.326 34.079-26.736 4.215-.922 13.97-.922 18.226 0 1.726.405 3.3.563 3.458.364.158-.165-1.492-6.545-3.657-14.176a441 441 0 0 1-3.795-13.785 287 287 0 0 0-4.4-.02c-8.945-.042-11.234.2-18.144 1.8C77.44 40.14 62.99 49.058 52.993 60.82c-16.582 19.512-22.158 46.132-14.774 70.332 2.688 8.917 6.023 15.462 11.605 23.045a75.56 75.56 0 0 0 30.202 24.076m17.69 13.097c-2.166-.316-4.256-.681-4.614-.839a60 60 0 0 0-3.857-1.004c-12.766-3.093-26.33-10.677-36.492-20.398-7.748-7.425-15.496-18.665-18.748-27.135-.44-1.087-.963-2.372-1.169-2.812-1.08-2.29-3.004-8.993-4.09-14.41-1.17-5.658-1.245-6.669-1.245-14.898 0-5.054.206-9.873.44-11.241.282-1.32.804-4.256 1.244-6.463.406-2.248 1.004-4.496 1.286-5.018a3.1 3.1 0 0 0 .406-.963c-.207 0 1.643-5.981 1.966-6.421.158-.206.64-1.286 1.038-2.406.688-1.89 2.936-6.463 3.781-7.838.234-.316 1.279-2.083 2.365-3.891 1.12-1.843 2.207-3.575 2.406-3.809.241-.282 1.568-1.966 2.936-3.733C57.331 42.87 75.515 31.87 94.662 28.301c5.665-1.086 24.97-1.044 30.71.042 9.199 1.719 18.996 5.534 27.301 10.594 4.015 2.49 4.297 2.654 8.835 6.263 3.849 3.053 10.236 9.474 13.007 13.09a134 134 0 0 0 3.011 3.85c.564.73 1.045 1.41 1.045 1.568 0 .206.44.887.963 1.567.522.688 1.767 2.888 2.812 4.854 1.003 2.008 2.007 3.816 2.165 4.015.158.24.921 1.89 1.65 3.733 5.418 13.695 7.301 26.744 5.816 40.838-.605 6.05-3.334 16.775-5.417 21.354-.406.962-.763 1.842-.763 1.966 0 .357-3.451 7.267-4.496 8.992-8.47 14.053-20.474 25.369-34.045 32.113-2.331 1.169-4.538 2.249-4.937 2.455-2.695 1.402-11.563 4.09-18.15 5.459-4.09.838-21.236 1.045-26.455.316m18.026-57.406c8.71-2.207 16.259-9.632 18.425-18.102.804-3.177.845-9.316.041-12.41-3.335-13.165-17.023-21.56-29.906-18.308-5.301 1.327-8.113 2.888-11.846 6.628-5.335 5.341-7.549 10.635-7.507 18.102.04 11.364 7.425 20.961 18.507 23.925 3.334.893 9.116.962 12.286.165"/></g><defs><clipPath id="a"><path fill="#fff" d="M0 0h220v220H0z"/></clipPath></defs></svg>